<svg width="90" height="54" viewBox="0 0 90 54" fill="none" xmlns="http://www.w3.org/2000/svg">
<g clip-path="url(#clip0_345_266)">
<path d="M26.8771 0C19.7489 0 12.9125 2.84464 7.87216 7.90815C2.83169 12.9716 0 19.8391 0 27C0 34.1609 2.83169 41.0284 7.87216 46.0919C12.9125 51.1554 19.7489 54 26.8771 54C33.8645 53.9927 40.5743 51.2522 45.5843 46.3592C50.5944 41.4664 53.5106 34.8058 53.7149 27.7895C51.859 28.2895 53.6782 27.816 51.7391 28.3331C50.6472 27.9757 48.3291 29.5703 48.2359 29.5703C48.0251 29.5703 46.478 23.5845 46.478 23.5845L41.8852 21.2143H40.3157L40.1578 21.9761L43.7814 25.4046L38.0508 27.9019L33.7954 21.9761L33.1666 22.2566L34.5117 26.6321L39.6519 29.4258L34.5117 35.521L34.68 39.8387L30.9273 47.9364L24.6678 47.127L22.748 36.4181L22.3767 32.3887L13.7956 31.926L12.6848 24.6011L16.5621 20.2826L23.1352 19.5208L27.9388 22.1452L32.3699 20.9736C32.2365 18.7588 32.3759 19.4621 32.2365 18.7588L29.8768 18.6745L29.7505 17.4469L29.0341 17.193L28.6969 18.7166L27.5595 18.6531L26.1269 15.4573L25.1154 15.796L26.3374 18.505L25.2419 18.8859L23.5988 16.3886L22.5876 16.2191L19.9751 16.5579L17.7841 19.3515L15.5508 19.521L15.3822 15.4151L18.2895 15.2033L18.5425 13.9757L17.8471 13.2986L17.8262 12.8538L19.7679 11.8967L21.1549 11.5419L23.5145 10.7165L24.2728 9.82754L24.6942 10.7165L27.3908 11.0552L28.4443 9.95467L29.1606 6.99167L28.3599 6.65297L27.0115 8.68482L26 7.49949L24.6099 9.27743L22.882 9.57366L22.798 8.34616L24.1463 5.46774L27.9385 3.81712L33.2052 3.43624L33.6689 5.04466C33.6689 5.04466 33.0791 6.65309 32.9526 6.6954C32.936 6.70082 33.0039 6.90682 33.1282 7.24564H36.8712L38.5567 5.84863L42.0944 4.74718C37.6162 1.65597 32.3106 0.000826701 26.8771 0ZM13.5703 4.51587L14.3075 4.6428C14.3075 4.6428 14.5182 5.61624 14.3498 5.84899C14.1811 6.08187 13.0437 6.80159 13.0437 6.80159L12.306 5.3413L13.5702 4.51587H13.5703ZM18.5001 5.91264L19.4902 8.26185L19.8906 10.2724C19.8906 10.2724 18.5002 10.9707 18.3949 11.0554C18.2895 11.1398 17.6574 10.0819 17.6574 10.0819L17.4258 7.92303L17.7629 6.10296L18.5001 5.91264ZM17.0463 8.62156V10.5688L15.8456 11.0341L15.5928 10.1031L17.0465 8.62164L17.0463 8.62156ZM39.7364 37.3836L38.8527 44.8324L36.9132 45.214C36.9132 45.214 37.4973 39.1279 37.7922 38.7895L39.7363 37.3834L39.7364 37.3836Z" fill="white"/>
<path d="M48.855 12.9291C48.855 11.9726 49.1007 11.2629 49.5922 10.8C50.0836 10.3371 50.7543 10.1057 51.6041 10.1057C52.454 10.1057 53.1348 10.3423 53.6468 10.8154C54.1588 11.2885 54.4147 11.9932 54.4147 12.9291V18.3909C54.4147 19.1931 54.2304 19.8257 53.8618 20.2886C53.4932 20.7412 52.9915 21.0291 52.3567 21.1526V21.4303C52.3567 21.5435 52.372 21.6206 52.4028 21.6617C52.4335 21.7028 52.5051 21.7234 52.6178 21.7234H53.8157V23.2971H52.7406C52.4233 23.2971 52.1468 23.2715 51.9113 23.22C51.6861 23.1685 51.4966 23.0811 51.343 22.9577C51.1894 22.8343 51.0717 22.6646 50.9898 22.4486C50.9181 22.2428 50.8823 21.9805 50.8823 21.6617V21.168C50.2474 21.0446 49.7509 20.7566 49.3925 20.304C49.0341 19.8411 48.855 19.2034 48.855 18.3909V12.9291ZM51.0052 18.5606C51.0052 18.8589 51.0666 19.0645 51.1894 19.1777C51.3225 19.2909 51.471 19.3474 51.6348 19.3474C51.7986 19.3474 51.942 19.2909 52.0649 19.1777C52.198 19.0645 52.2645 18.8589 52.2645 18.5606V12.7749C52.2645 12.4765 52.198 12.2709 52.0649 12.1577C51.942 12.0445 51.7986 11.988 51.6348 11.988C51.471 11.988 51.3225 12.0445 51.1894 12.1577C51.0666 12.2709 51.0052 12.4765 51.0052 12.7749V18.5606ZM57.5717 10.26C58.483 10.26 59.1792 10.5634 59.6604 11.1703C60.1417 11.7772 60.3823 12.7234 60.3823 14.0091V14.04C60.3823 14.6983 60.3208 15.2537 60.198 15.7063C60.0853 16.1589 59.9113 16.524 59.6758 16.8017C59.4506 17.0794 59.1588 17.28 58.8004 17.4034C58.4523 17.5269 58.0376 17.5886 57.5563 17.5886H57.0649V21.06H54.9147V10.26H57.5717ZM57.0649 15.7217H57.5563C57.8021 15.7217 57.9762 15.6548 58.0785 15.5211C58.1809 15.3771 58.2321 15.1457 58.2321 14.8269V13.0834C58.2321 12.744 58.1809 12.5023 58.0785 12.3583C57.9762 12.2143 57.8021 12.1423 57.5563 12.1423H57.0649V15.7217ZM59.7149 19.98C59.7149 19.62 59.807 19.3423 59.9913 19.1469C60.1756 18.9411 60.447 18.8383 60.8053 18.8383C61.1535 18.8383 61.4197 18.9411 61.604 19.1469C61.7985 19.3526 61.8958 19.6354 61.8958 19.9954C61.8958 20.3555 61.8036 20.6383 61.6193 20.844C61.435 21.0394 61.1637 21.1371 60.8053 21.1371C60.447 21.1371 60.1756 21.0394 59.9913 20.844C59.807 20.6383 59.7149 20.3503 59.7149 19.98ZM67.001 10.2446L68.1529 21.0446H66.0027L65.757 18.3754H64.8201L64.5898 21.0446H62.4396L63.6376 10.2446H67.001ZM65.5881 16.4931L65.3731 13.9166H65.2195L64.9891 16.4931H65.5881ZM68.5583 12.5126C68.5583 12.0395 68.6095 11.6434 68.7119 11.3246C68.8143 10.9954 68.9628 10.7331 69.1573 10.5377C69.3519 10.3423 69.5822 10.2035 69.8484 10.1211C70.1146 10.0388 70.4116 9.99771 70.7392 9.99771C71.1283 9.99771 71.5378 10.044 71.9679 10.1366L71.9525 11.88C71.8603 11.8594 71.7682 11.844 71.676 11.8337C71.5942 11.8131 71.5071 11.8029 71.415 11.8029C71.1999 11.8029 71.0106 11.8646 70.8467 11.988C70.6829 12.1114 70.601 12.3223 70.601 12.6206V13.1914H71.9525V14.9503H70.601V21.06H68.5583V14.9503H67.8672V13.1914H68.5583V12.5126ZM74.2202 14.3949H74.2816C74.4147 13.9937 74.6093 13.6697 74.8652 13.4229C75.1212 13.1657 75.4488 13.0371 75.8481 13.0371C75.9505 13.0371 76.0273 13.0423 76.0785 13.0526V15.0891C76.0171 15.0789 75.9505 15.0737 75.8789 15.0737C75.8174 15.0635 75.756 15.0583 75.6946 15.0583C75.1724 15.0583 74.7936 15.2126 74.558 15.5211C74.3328 15.8297 74.2202 16.2617 74.2202 16.8171V21.06H72.1929V13.1914H74.2202V14.3949ZM76.3302 11.4017C76.3302 11.052 76.4326 10.7948 76.6374 10.6303C76.8425 10.4554 77.1236 10.368 77.4822 10.368C77.8408 10.368 78.1219 10.4554 78.3269 10.6303C78.5319 10.8052 78.6341 11.0623 78.6341 11.4017C78.6341 11.7617 78.5319 12.0291 78.3269 12.204C78.1326 12.3685 77.8562 12.4509 77.4976 12.4509C77.1389 12.4509 76.8525 12.3685 76.6374 12.204C76.4326 12.0291 76.3302 11.7617 76.3302 11.4017ZM78.5112 13.1914V21.06H76.4685V13.1914H78.5112ZM81.0592 18.7303C81.0592 18.9565 81.1052 19.1366 81.1974 19.2703C81.2995 19.3937 81.4331 19.4554 81.5967 19.4554C81.7603 19.4554 81.8885 19.3937 81.9807 19.2703C82.0828 19.1366 82.1342 18.9565 82.1342 18.7303V17.4651H84.1615V18.6069C84.1615 19.4091 83.9258 20.0469 83.4551 20.52C82.9943 20.9829 82.3646 21.2143 81.566 21.2143C80.7674 21.2143 80.143 20.9829 79.6923 20.52C79.2415 20.0469 79.0165 19.4091 79.0165 18.6069V15.6446C79.0165 14.8423 79.2415 14.2097 79.6923 13.7469C80.143 13.2737 80.7674 13.0371 81.566 13.0371C82.3646 13.0371 82.9943 13.2737 83.4551 13.7469C83.9258 14.2097 84.1615 14.8423 84.1615 15.6446V16.7863H82.1342V15.5366C82.1342 15.3 82.0828 15.12 81.9807 14.9966C81.8885 14.8629 81.7603 14.796 81.5967 14.796C81.4331 14.796 81.2995 14.8629 81.1974 14.9966C81.1052 15.12 81.0592 15.3 81.0592 15.5366V18.7303ZM87.7132 15.5211C87.7132 15.2949 87.6671 15.12 87.5749 14.9966C87.4828 14.8629 87.3599 14.796 87.2063 14.796C87.0528 14.796 86.9245 14.8629 86.8224 14.9966C86.7302 15.12 86.6842 15.2949 86.6842 15.5211V16.4623H84.6415V15.6446C84.6415 14.8423 84.8665 14.2097 85.3173 13.7469C85.768 13.2737 86.387 13.0371 87.1756 13.0371C87.9535 13.0371 88.5732 13.2737 89.034 13.7469C89.5047 14.2097 89.7405 14.8423 89.7405 15.6446V21.06H87.7132V20.2886H87.6517C87.2524 20.9057 86.751 21.2143 86.1466 21.2143C85.6859 21.2143 85.3119 21.06 85.0255 20.7514C84.749 20.4326 84.6108 20.016 84.6108 19.5017V18.4989C84.6108 17.9845 84.7851 17.5731 85.133 17.2646C85.4808 16.956 85.947 16.8017 86.5306 16.8017H87.7132V15.5211ZM87.7132 17.8046H87.3599C86.8892 17.8046 86.6534 17.9949 86.6534 18.3754V19.0543C86.6534 19.2292 86.6941 19.368 86.7763 19.4709C86.8685 19.5634 86.986 19.6097 87.1296 19.6097C87.406 19.6097 87.6003 19.4554 87.7132 19.1469V17.8046Z" fill="white"/>
</g>
<defs>
<clipPath id="clip0_345_266">
<rect width="90" height="54" fill="white"/>
</clipPath>
</defs>
</svg>
